<svg width="25" height="24" viewBox="0 0 25 24" fill="none" xmlns="http://www.w3.org/2000/svg">
<path fill-rule="evenodd" clip-rule="evenodd" d="M10.533 2.88301C11.0787 2.40911 11.7772 2.14816 12.5 2.14816C13.2228 2.14816 13.9213 2.40911 14.467 2.88301L21.467 8.95901C21.7914 9.24072 22.0515 9.58882 22.2297 9.97976C22.408 10.3707 22.5001 10.7954 22.5 11.225V19C22.5 19.7957 22.1839 20.5587 21.6213 21.1213C21.0587 21.6839 20.2957 22 19.5 22H16C15.6022 22 15.2206 21.842 14.9393 21.5607C14.658 21.2794 14.5 20.8978 14.5 20.5V13.687H10.5V20.5C10.5 20.8978 10.342 21.2794 10.0607 21.5607C9.77936 21.842 9.39783 22 9 22H5.5C4.70435 22 3.94129 21.6839 3.37868 21.1213C2.81607 20.5587 2.5 19.7957 2.5 19V11.225C2.49988 10.7954 2.59205 10.3707 2.77026 9.97976C2.94848 9.58882 3.20859 9.24072 3.533 8.95901L10.533 2.88301ZM13.156 4.39301C12.974 4.23486 12.7411 4.14777 12.5 4.14777C12.2589 4.14777 12.026 4.23486 11.844 4.39301L4.844 10.47C4.73597 10.5639 4.64935 10.6799 4.59001 10.8102C4.53066 10.9404 4.49997 11.0819 4.5 11.225V19C4.5 19.2652 4.60536 19.5196 4.79289 19.7071C4.98043 19.8947 5.23478 20 5.5 20H8.5V13.687C8.5 13.1566 8.71072 12.6479 9.08579 12.2728C9.46086 11.8977 9.96957 11.687 10.5 11.687H14.5C15.0304 11.687 15.5391 11.8977 15.9142 12.2728C16.2893 12.6479 16.5 13.1566 16.5 13.687V20H19.5C19.7652 20 20.0196 19.8947 20.2071 19.7071C20.3946 19.5196 20.5 19.2652 20.5 19V11.225C20.4999 11.0818 20.4691 10.9403 20.4095 10.81C20.35 10.6798 20.2632 10.5638 20.155 10.47L13.156 4.39301Z" fill="#383E4B"/>
</svg>
