<svg width="24" height="24" viewBox="0 0 24 24" fill="none" xmlns="http://www.w3.org/2000/svg">
<path d="M3.5 8C4.13333 6.18333 5.22933 4.72933 6.788 3.638C8.34667 2.54667 10.084 2.00067 12 2C13.3667 2 14.6627 2.29167 15.888 2.875C17.1133 3.45833 18.1507 4.28333 19 5.35V2H21V8H15V6H16.9C16.25 5.35 15.5 4.85433 14.65 4.513C13.8 4.17167 12.9167 4.00067 12 4C10.65 4 9.404 4.35833 8.262 5.075C7.12 5.79167 6.258 6.76667 5.676 8H3.5ZM10.5 22C9.53333 22 8.70833 21.6583 8.025 20.975C7.34167 20.2917 7 19.4667 7 18.5C7 17.5333 7.34167 16.7083 8.025 16.025C8.70833 15.3417 9.53333 15 10.5 15C10.7667 15 11.025 15.025 11.275 15.075C11.525 15.125 11.7667 15.2083 12 15.325V10H17V12H14V18.5C14 19.4667 13.6583 20.2917 12.975 20.975C12.2917 21.6583 11.4667 22 10.5 22Z" fill="#00228E"/>
</svg>
